<svg width="31" height="40" viewBox="0 0 31 40" fill="none" xmlns="http://www.w3.org/2000/svg">
<path d="M28.4232 27.2994C28.8892 27.7344 29.4329 28.0295 30.0077 28.2781C30.5048 28.48 30.6756 28.946 30.4892 29.4742C29.8989 31.3538 28.9824 33.0781 27.895 34.7092C26.9164 36.1539 25.7979 37.4743 24.2911 38.4063C23.0794 39.152 21.8056 39.3228 20.4231 38.95C19.5066 38.7015 18.6212 38.3753 17.7046 38.0957C16.8347 37.8316 15.9648 37.6607 15.0483 37.816C14.4735 37.9092 13.9298 38.0957 13.3861 38.2976C12.5318 38.6238 11.6619 38.95 10.7609 39.0898C9.9065 39.2296 9.06766 39.0898 8.25988 38.7326C7.00162 38.1733 6.00744 37.2568 5.13752 36.2005C3.50644 34.2121 2.31031 31.9752 1.3938 29.5674C1.00545 28.5577 0.679229 27.5324 0.446217 26.4761C0.151068 25.0936 -0.0508758 23.6955 0.0112607 21.5984C0.0112607 20.8062 0.213205 19.346 0.64816 17.9324C1.02098 16.7052 1.58021 15.5712 2.32585 14.5304C3.33557 13.1168 4.59383 12.0604 6.22491 11.4391C7.52978 10.942 8.86572 10.8488 10.2483 11.0041C11.5997 11.1595 12.9046 11.5168 14.1939 11.9051C15.3124 12.2313 16.3687 12.1226 17.4561 11.7653C18.8231 11.2993 20.2056 10.8954 21.6503 10.7556C22.5202 10.6779 23.3591 10.7867 24.1979 10.9731C25.3785 11.2527 26.4659 11.7498 27.429 12.4799C28.2057 13.0546 28.8581 13.7537 29.4484 14.4993C29.7281 14.8566 29.6659 15.3382 29.3397 15.6644C28.8115 16.1925 28.2678 16.7052 27.7397 17.2333C26.9164 18.0722 26.3727 19.0663 26.1086 20.2003C25.9067 21.0547 25.9067 21.9246 25.9999 22.779C26.2173 24.5965 27.1028 26.0722 28.4232 27.2994Z" fill="black"/>
<path d="M15.7011 10.0558C15.5457 10.0713 15.3748 10.0868 15.2195 10.1024C14.5981 10.1956 14.1787 9.83827 14.1787 9.21691V8.85962C14.303 6.66931 14.9088 4.64987 16.3069 2.92558C17.0836 1.96247 18.0933 1.31003 19.1962 0.797408C19.9263 0.455657 20.6875 0.222645 21.4642 0.0362356C22.2409 -0.150174 22.7225 0.409055 22.6759 1.10809C22.6448 1.55858 22.6448 1.99354 22.5982 2.44403L22.5961 2.46444C22.5191 3.20355 22.4406 3.95736 22.1943 4.66541C21.8526 5.65959 21.2933 6.54504 20.6254 7.35281C20.0817 8.00525 19.4758 8.58001 18.7768 9.0771C17.8448 9.72953 16.804 9.96255 15.7011 10.0558Z" fill="black"/>
</svg>
